HIERARCHY
ROOT Hips
{
	OFFSET 0.00000 0.00000 0.00000
	CHANNELS 6 Xposition Yposition Zposition Zrotation Yrotation Xrotation 
	JOINT LHipJoint
	{
		OFFSET 0 0 0
		CHANNELS 3 Zrotation Yrotation Xrotation
		JOINT LeftHip
		{
			OFFSET 1.80322 -1.53100 0.99595
			CHANNELS 3 Zrotation Yrotation Xrotation
			JOINT LeftKnee
			{
				OFFSET 2.25177 -6.18669 0.00000
				CHANNELS 3 Zrotation Yrotation Xrotation
				JOINT LeftAnkle
				{
					OFFSET 2.26601 -6.22582 0.00000
					CHANNELS 3 Zrotation Yrotation Xrotation
					JOINT LeftToe
					{
						OFFSET 0.23701 -0.65119 2.15848
						CHANNELS 3 Zrotation Yrotation Xrotation
						End Site
						{
							OFFSET 0.00000 -0.00000 1.12949
						}
					}
				}
			}
		}
	}
	JOINT RHipJoint
	{
		OFFSET 0 0 0
		CHANNELS 3 Zrotation Yrotation Xrotation
		JOINT RightHip
		{
			OFFSET -1.93977 -1.53100 0.99595
			CHANNELS 3 Zrotation Yrotation Xrotation
			JOINT RightKnee
			{
				OFFSET -2.28036 -6.26523 0.00000
				CHANNELS 3 Zrotation Yrotation Xrotation
				JOINT RightAnkle
				{
					OFFSET -2.25490 -6.19528 0.00000
					CHANNELS 3 Zrotation Yrotation Xrotation
					JOINT RightToe
					{
						OFFSET -0.28375 -0.77960 2.23137
						CHANNELS 3 Zrotation Yrotation Xrotation
						End Site
						{
							OFFSET -0.00000 -0.00000 1.17899
						}
					}
				}
			}
		}
	}
	JOINT lowerback
	{
		OFFSET 0 0 0
		CHANNELS 3 Zrotation Yrotation Xrotation
		JOINT Chest
		{
			OFFSET -0.00088 2.12090 -0.02806
			CHANNELS 3 Zrotation Yrotation Xrotation
			JOINT Chest2
			{
				OFFSET -0.00286 2.09666 0.12974
				CHANNELS 3 Zrotation Yrotation Xrotation
				JOINT lowerneck
				{
					OFFSET 0 0 0
					CHANNELS 3 Zrotation Yrotation Xrotation
					JOINT Neck
					{
						OFFSET 0.07328 1.83526 0.07290
						CHANNELS 3 Zrotation Yrotation Xrotation
						JOINT Head
						{
							OFFSET -0.06683 1.74974 -0.49542
							CHANNELS 3 Zrotation Yrotation Xrotation
							End Site
							{
								OFFSET -0.03398 1.85163 -0.17573
							}
						}
					}
				}
				JOINT LeftCollar
				{
					OFFSET 0 0 0
					CHANNELS 3 Zrotation Yrotation Xrotation
					JOINT LeftShoulder
					{
						OFFSET 3.02113 1.18018 0.40602
CHANNELS 3 Zrotation Xrotation Yrotation
						JOINT LeftElbow
						{
OFFSET 0 -4.585380 -0.000000
CHANNELS 3 Zrotation Xrotation Yrotation
							JOINT LeftWrist
							{
OFFSET 0 -2.689350 -0.000000
CHANNELS 3 Zrotation Xrotation Yrotation
								JOINT lhand
								{
									OFFSET 0 0 0
CHANNELS 3 Zrotation Xrotation Yrotation
									JOINT LFingers
									{
OFFSET 0 -0.585060 -0.000000
CHANNELS 3 Zrotation Xrotation Yrotation
										End Site
										{
OFFSET 0 -0.471690 -0.000000
										}
									}
								}
								JOINT LThumb
								{
OFFSET 0 0.000000 0.000000
CHANNELS 3 Zrotation Xrotation Yrotation
									End Site
									{
OFFSET 0 -0.478890 0.478890
									}
								}
							}
						}
					}
				}
				JOINT RightCollar
				{
					OFFSET 0 0 0
					CHANNELS 3 Zrotation Yrotation Xrotation
					JOINT RightShoulder
					{
						OFFSET -2.95074 1.18843 0.31430
CHANNELS 3 Zrotation Xrotation Yrotation
						JOINT RightElbow
						{
OFFSET 0 -4.474500 -0.000000
CHANNELS 3 Zrotation Xrotation Yrotation
							JOINT RightWrist
							{
OFFSET 0 -2.938960 -0.000000
CHANNELS 3 Zrotation Xrotation Yrotation
								JOINT rhand
								{
									OFFSET 0 0 0
CHANNELS 3 Zrotation Xrotation Yrotation
									JOINT RFingers
									{
OFFSET 0 -0.405090 -0.000000
CHANNELS 3 Zrotation Xrotation Yrotation
										End Site
										{
OFFSET 0 -0.326600 -0.000000
										}
									}
								}
								JOINT RThumb
								{
OFFSET 0 0.000000 0.000000
CHANNELS 3 Zrotation Xrotation Yrotation
									End Site
									{
OFFSET 0 -0.331580 0.331580
									}
								}
							}
						}
					}
				}
			}
		}
	}
}
MOTION
Frames: 4
Frame Time: 0.008333333333333333
0.390900 15.754000 -9.474100 -0.659700 -6.143300 12.194700 0.000000 0.000000 0.000000 -20.302600 -14.415700 -12.797800 1.438700 7.583200 21.455100 0.491100 11.526900 -21.986100 0.087900 1.912400 5.263600 0.000000 0.000000 0.000000 17.041200 15.110100 -14.562100 -1.728600 -8.276200 23.556100 -0.476800 -12.405300 -22.789500 -0.157800 2.559400 -7.054500 0.338600 -0.612200 -6.485300 0.301100 -0.839400 -6.822100 0.093400 -0.435200 -3.416300 7.043600 1.359600 -14.465500 -3.190000 0.874300 40.074900 -2.566000 0.951300 17.104400 -0.000000 -0.000000 0.000000 2.925100 13.259100 -18.339500 16.848400 -26.657500 4.019100 4.546400 22.891500 -12.455100 0.000000 0.000000 0.000000 -7.125000 0.000000 0.000000 -20.111600 41.575500 -1.779300 -0.000000 -0.000000 0.000000 -6.407200 7.154400 27.279100 -14.318500 -23.188100 -2.952300 -11.041600 11.486000 7.023000 0.000000 0.000000 0.000000 7.125000 0.000000 -0.000000 13.272900 36.840200 2.723100
0.476001 15.737919 -9.433086 -0.733150 -6.622451 12.543779 0.000000 0.000000 0.000000 -20.538657 -14.020230 -13.553337 1.535255 7.822386 22.175790 0.609826 11.048611 -22.608021 0.124964 2.278751 6.276713 0.000000 0.000000 0.000000 16.484781 14.340631 -14.934404 -1.722582 -8.262617 23.514571 -1.035116 -10.635881 -25.798437 -0.618844 5.032837 -14.002492 0.407147 -0.582084 -6.172527 0.365748 -0.799430 -6.603244 0.124920 -0.416202 -3.360537 6.883240 1.183394 -14.841993 -3.102100 0.576524 39.765016 -2.545013 0.805105 17.003104 0.000000 0.000000 0.000000 2.839131 12.988468 -18.959985 17.010177 -26.871131 4.091925 4.436542 22.704776 -12.390741 0.000000 0.000000 0.000000 -7.125000 0.000000 0.000000 -20.184044 41.504656 -1.823409 0.000000 0.000000 0.000000 -6.730085 6.866232 27.382440 -14.819713 -23.894258 -3.152556 -11.475722 10.371098 6.284713 0.000000 0.000000 0.000000 7.125000 0.000000 0.000000 12.775258 36.133250 2.842405
0.594964 15.700920 -9.374218 -0.626181 -7.898856 12.560463 0.000000 0.000000 0.000000 -21.245998 -13.046796 -13.835544 1.609252 7.999762 22.713282 0.794605 10.253821 -23.501093 0.132785 2.348974 6.471078 0.000000 0.000000 0.000000 15.543690 13.142213 -16.647009 -2.026278 -8.920127 25.546034 -1.469894 -7.865712 -26.944892 -1.017533 6.417483 -18.000672 0.048341 -0.507356 -5.425775 0.450405 -0.685371 -6.218716 0.421308 -0.342400 -3.368468 7.087151 1.186611 -15.206518 -3.025364 0.434586 39.169730 -2.557883 0.768689 16.763830 0.000000 0.000000 0.000000 2.760924 12.847311 -20.381615 17.313814 -27.269627 4.230169 4.575702 22.142851 -12.346530 0.000000 0.000000 0.000000 -7.125000 0.000000 0.000000 -20.051965 41.476212 -1.825099 0.000000 0.000000 0.000000 -7.313802 6.560234 26.677231 -15.434134 -24.747351 -3.405609 -11.205339 9.466090 6.273579 0.000000 0.000000 0.000000 7.125000 0.000000 0.000000 12.995370 36.106982 2.901984
0.711497 15.663772 -9.315131 0.376808 -10.713570 12.049607 0.000000 0.000000 0.000000 -23.255695 -10.354157 -13.137062 1.431105 7.563880 21.397229 0.849543 9.722457 -23.506346 0.138611 2.399543 6.611139 0.000000 0.000000 0.000000 13.237344 12.681226 -22.578907 -3.664423 -11.698716 34.675993 -1.396167 -4.799541 -24.506550 -1.071306 6.579653 -18.475838 -1.791726 -0.457018 -4.024818 0.284946 -0.594636 -5.667673 1.292230 -0.229735 -3.564204 7.864524 1.455997 -15.392430 -2.939924 0.508675 38.117340 -2.617055 0.889852 16.272247 0.000000 0.000000 0.000000 3.167864 12.851752 -22.122943 17.430214 -27.421461 4.283555 4.454441 21.648612 -12.247708 0.000000 0.000000 0.000000 -7.125000 0.000000 0.000000 -20.123345 41.371866 -1.886621 0.000000 0.000000 0.000000 -7.712888 5.734933 25.201949 -16.149122 -25.722425 -3.710450 -11.829942 8.122459 5.361339 0.000000 0.000000 0.000000 7.125000 0.000000 0.000000 12.322206 35.232742 3.013826
